<?xml version="1.0" encoding="utf-8"?>
<!-- Generator: Adobe Illustrator 24.0.1, SVG Export Plug-In . SVG Version: 6.00 Build 0)  -->
<svg version="1.1" id="Layer_1" xmlns="http://www.w3.org/2000/svg" xmlns:xlink="http://www.w3.org/1999/xlink" x="0px" y="0px"
	 width="73.7px" height="29.2px" viewBox="0 0 73.7 29.2" style="enable-background:new 0 0 73.7 29.2;" xml:space="preserve">
<path d="M28.3,6.6h3v14.5h-3V6.6z M33,16.1c0-2.9,2.4-5.2,5.3-5.2c2.9,0,5.2,2.4,5.2,5.3s-2.4,5.2-5.3,5.2c0,0,0,0,0,0
	c-2.9,0-5.2-2.3-5.2-5.1C32.9,16.2,32.9,16.1,33,16.1z M40.5,16.1c0-1.3-1.1-2.3-2.3-2.2c-1.3,0-2.3,1.1-2.2,2.3
	c0,1.2,1,2.2,2.3,2.2c1.2,0,2.2-1,2.3-2.2C40.5,16.2,40.5,16.2,40.5,16.1L40.5,16.1z"/>
<path d="M55.3,11.1v9.4c0,3.3-2.6,4.7-5.2,4.7c-1.9,0.2-3.7-0.8-4.7-2.4l2.5-1.5c0.4,0.8,1.3,1.3,2.3,1.2c1.1,0.1,2.1-0.6,2.2-1.7
	c0-0.1,0-0.3,0-0.4v-0.9c-0.7,0.9-1.8,1.3-2.9,1.3c-2.8,0-5-2.2-5-5s2.2-5,5-5c1.1-0.1,2.2,0.4,2.9,1.3v-1L55.3,11.1z M52.4,15.9
	c0.1-1.3-1-2.4-2.3-2.5c-1.3-0.1-2.4,1-2.5,2.3c-0.1,1.3,1,2.4,2.3,2.5c0,0,0.1,0,0.1,0c1.2,0.1,2.3-0.8,2.4-2.1
	C52.4,16.1,52.4,16,52.4,15.9z M57,16.1c0-2.9,2.4-5.2,5.3-5.2s5.2,2.4,5.2,5.3s-2.4,5.2-5.3,5.2c0,0,0,0,0,0
	c-2.9,0-5.2-2.3-5.2-5.1C56.9,16.2,56.9,16.1,57,16.1z M64.5,16.1c0-1.3-1.1-2.3-2.3-2.2c-1.3,0-2.3,1.1-2.2,2.3
	c0,1.2,1,2.2,2.3,2.2c1.2,0,2.2-1,2.3-2.2C64.5,16.2,64.5,16.2,64.5,16.1L64.5,16.1z M13.4,4V0H0v29.2h13.4V25C7.7,25,3,20.3,3,14.6
	S7.7,4.2,13.4,4.2V4z M13.4,4v20.7c5.7,0,10.4-4.6,10.4-10.4S19.1,4,13.4,4z"/>
<circle cx="71.5" cy="8.9" r="2.2"/>
</svg>
